<?xml version="1.0" encoding="UTF-8"?>
<svg version="1.1" xmlns="http://www.w3.org/2000/svg" width="223" height="37">
<path d="M0 0 C73.59 0 147.18 0 223 0 C223 12.21 223 24.42 223 37 C149.41 37 75.82 37 0 37 C0 24.79 0 12.58 0 0 Z " fill="#FDFCFE" transform="translate(0,0)"/>
<path d="M0 0 C1.12535156 0.63808594 2.25070313 1.27617188 3.41015625 1.93359375 C4.55355469 2.57425781 5.69695313 3.21492187 6.875 3.875 C7.73222656 4.36871094 8.58945312 4.86242187 9.47265625 5.37109375 C9.14265625 5.98984375 8.81265625 6.60859375 8.47265625 7.24609375 C5.54113679 13.47557261 9.51639976 22.25625427 11.47265625 28.37109375 C8.47265625 27.37109375 8.47265625 27.37109375 6.47265625 24.37109375 C6.02535156 24.87640625 5.57804687 25.38171875 5.1171875 25.90234375 C0.19663815 31.19009827 0.19663815 31.19009827 -3.27734375 32.05859375 C-6.1629661 31.17687581 -7.011975 29.92329374 -8.52734375 27.37109375 C-7.20734375 27.70109375 -5.88734375 28.03109375 -4.52734375 28.37109375 C-4.47287328 26.95486159 -4.43433867 25.53801184 -4.40234375 24.12109375 C-4.37914063 23.3321875 -4.3559375 22.54328125 -4.33203125 21.73046875 C-4.54753969 19.12712678 -5.14607715 17.57431125 -6.52734375 15.37109375 C-8.41050534 14.26272952 -8.41050534 14.26272952 -10.52734375 13.37109375 C-11.18734375 12.85546875 -11.84734375 12.33984375 -12.52734375 11.80859375 C-14.68710322 10.06958942 -14.68710322 10.06958942 -18.52734375 9.37109375 C-18.52734375 13.00109375 -18.52734375 16.63109375 -18.52734375 20.37109375 C-16.05234375 21.36109375 -16.05234375 21.36109375 -13.52734375 22.37109375 C-11.21484375 24.49609375 -11.21484375 24.49609375 -9.52734375 26.37109375 C-13.35826565 26.93446462 -14.51104569 26.38237702 -17.77734375 24.12109375 C-21.14406302 20.75437448 -21.46303482 19.21290144 -21.625 14.57421875 C-21.61339844 13.5996875 -21.60179687 12.62515625 -21.58984375 11.62109375 C-21.58082031 10.63625 -21.57179688 9.65140625 -21.5625 8.63671875 C-21.55089844 7.8890625 -21.53929687 7.14140625 -21.52734375 6.37109375 C-20.86734375 6.37109375 -20.20734375 6.37109375 -19.52734375 6.37109375 C-19.43710937 5.76910156 -19.346875 5.16710937 -19.25390625 4.546875 C-18.33709637 1.80137444 -17.3187329 1.10265709 -14.90234375 -0.44140625 C-14.25007813 -0.88097656 -13.5978125 -1.32054687 -12.92578125 -1.7734375 C-8.23380962 -3.44695833 -4.37461799 -2.02017243 0 0 Z " fill="#E7D6F2" transform="translate(36.52734375,5.62890625)"/>
<path d="M0 0 C1.546875 0.8353125 1.546875 0.8353125 3.125 1.6875 C4.91589924 2.56406966 6.70761829 3.43896566 8.5 4.3125 C10.04366216 5.10026859 11.58601439 5.89063394 13.125 6.6875 C11.7831656 10.71300319 9.7022427 11.57035636 6.125 13.6875 C5.465 13.6875 4.805 13.6875 4.125 13.6875 C3.795 15.0075 3.465 16.3275 3.125 17.6875 C2.48884766 17.09001953 2.48884766 17.09001953 1.83984375 16.48046875 C-2.20267445 12.82887539 -5.76150302 10.56592746 -10.875 8.6875 C-10.875 5.6875 -10.875 5.6875 -9.3359375 4.01171875 C-3.7093055 -0.40318538 -3.7093055 -0.40318538 0 0 Z " fill="#F6F4FB" transform="translate(30.875,4.3125)"/>
<path d="M0 0 C2 1 2 1 3 3 C3.64496732 7.99849676 3.80803616 9.89183613 0.8125 14 C-2 16 -2 16 -4.5625 16.5625 C-7.97592574 15.77478637 -9.0606088 14.94500146 -11 12 C-11.49799479 8.93456543 -11.6232551 6.04889656 -11 3 C-8.08126129 -1.0076871 -4.56953166 -0.66639003 0 0 Z " fill="#6F47C0" transform="translate(63,10)"/>
<path d="M0 0 C1.12535156 0.63808594 2.25070313 1.27617188 3.41015625 1.93359375 C4.55355469 2.57425781 5.69695313 3.21492187 6.875 3.875 C7.73222656 4.36871094 8.58945312 4.86242187 9.47265625 5.37109375 C7.80078125 9.21484375 7.80078125 9.21484375 4.84765625 10.62109375 C4.06390625 10.86859375 3.28015625 11.11609375 2.47265625 11.37109375 C4.12265625 9.39109375 5.77265625 7.41109375 7.47265625 5.37109375 C6.64765625 5.12359375 5.82265625 4.87609375 4.97265625 4.62109375 C2.17147377 3.62067144 -0.02817825 2.55990397 -2.58984375 1.12109375 C-5.71875684 -0.48049158 -5.71875684 -0.48049158 -9.21484375 -0.19140625 C-12.01952971 1.70365183 -14.23807006 3.8855966 -16.52734375 6.37109375 C-16.00785156 6.60183594 -15.48835938 6.83257812 -14.953125 7.0703125 C-10.24193333 9.27351304 -6.98361228 11.48279165 -3.52734375 15.37109375 C-3.85734375 16.03109375 -4.18734375 16.69109375 -4.52734375 17.37109375 C-10.19071009 13.63842048 -10.19071009 13.63842048 -12.65234375 11.68359375 C-14.72024147 10.06953584 -14.72024147 10.06953584 -18.52734375 9.37109375 C-18.52734375 13.00109375 -18.52734375 16.63109375 -18.52734375 20.37109375 C-16.05234375 21.36109375 -16.05234375 21.36109375 -13.52734375 22.37109375 C-11.21484375 24.49609375 -11.21484375 24.49609375 -9.52734375 26.37109375 C-13.35826565 26.93446462 -14.51104569 26.38237702 -17.77734375 24.12109375 C-21.14406302 20.75437448 -21.46303482 19.21290144 -21.625 14.57421875 C-21.61339844 13.5996875 -21.60179687 12.62515625 -21.58984375 11.62109375 C-21.58082031 10.63625 -21.57179688 9.65140625 -21.5625 8.63671875 C-21.55089844 7.8890625 -21.53929687 7.14140625 -21.52734375 6.37109375 C-20.86734375 6.37109375 -20.20734375 6.37109375 -19.52734375 6.37109375 C-19.43710937 5.76910156 -19.346875 5.16710937 -19.25390625 4.546875 C-18.33709637 1.80137444 -17.3187329 1.10265709 -14.90234375 -0.44140625 C-14.25007813 -0.88097656 -13.5978125 -1.32054687 -12.92578125 -1.7734375 C-8.23380962 -3.44695833 -4.37461799 -2.02017243 0 0 Z " fill="#D8CCED" transform="translate(36.52734375,5.62890625)"/>
<path d="M0 0 C6.8359375 -0.1953125 6.8359375 -0.1953125 9 0 C9.66 0.66 10.32 1.32 11 2 C10.42307692 8.57692308 10.42307692 8.57692308 9 10 C7.33382885 10.04063832 5.66611905 10.042721 4 10 C4.33 11.65 4.66 13.3 5 15 C3.35 15 1.7 15 0 15 C0 10.05 0 5.1 0 0 Z " fill="#B681D8" transform="translate(91,15)"/>
<path d="M0 0 C0.01417969 0.83144531 0.02835938 1.66289062 0.04296875 2.51953125 C0.09066406 3.60621094 0.13835938 4.69289063 0.1875 5.8125 C0.22230469 6.89144531 0.25710937 7.97039063 0.29296875 9.08203125 C0.71742142 12.18051787 0.71742142 12.18051787 3.375 13.79296875 C4.24125 14.19128906 5.1075 14.58960938 6 15 C8.8125 16.5 8.8125 16.5 11 18 C11 18.99 11 19.98 11 21 C9.32201275 20.7293569 7.65839874 20.37229359 6 20 C5.25234375 19.83886719 4.5046875 19.67773438 3.734375 19.51171875 C1.29569388 18.87058162 -0.78901669 18.21757928 -3 17 C-4.64484123 13.52052816 -5.20988031 11.364222 -4.625 7.5625 C-4.41875 7.046875 -4.2125 6.53125 -4 6 C-4.99 5.67 -5.98 5.34 -7 5 C-2.25 0 -2.25 0 0 0 Z " fill="#F0E5F7" transform="translate(48,11)"/>
<path d="M0 0 C6.0546875 -0.1953125 6.0546875 -0.1953125 8 0 C8.66 0.66 9.32 1.32 10 2 C9.42307692 8.57692308 9.42307692 8.57692308 8 10 C6.33382885 10.04063832 4.66611905 10.042721 3 10 C3.33 11.65 3.66 13.3 4 15 C2.35 15 0.7 15 -1 15 C-0.67 10.05 -0.34 5.1 0 0 Z " fill="#B47DD7" transform="translate(74,15)"/>
<path d="M0 0 C3 0.25 3 0.25 5 2.25 C5.33661952 5.4142235 5.49943411 7.43513382 3.8125 10.1875 C2 11.25 2 11.25 -0.5625 11.0625 C-3 10.25 -3 10.25 -5 8.25 C-5.25 5.25 -5.25 5.25 -5 2.25 C-3 0.25 -3 0.25 0 0 Z " fill="#8F58C9" transform="translate(114,14.75)"/>
<path d="M0 0 C4.55555556 0.55555556 4.55555556 0.55555556 6 2 C6.16796875 3.99609375 6.16796875 3.99609375 6.1875 6.4375 C6.20167969 7.24058594 6.21585938 8.04367188 6.23046875 8.87109375 C6 11 6 11 4 13 C-0.55555556 12.44444444 -0.55555556 12.44444444 -2 11 C-2.16796875 9.00390625 -2.16796875 9.00390625 -2.1875 6.5625 C-2.20167969 5.75941406 -2.21585938 4.95632812 -2.23046875 4.12890625 C-2 2 -2 2 0 0 Z " fill="#FAF9FD" transform="translate(57,11)"/>
<path d="M0 0 C4.39718646 1.09929662 4.79997334 1.55450729 7.25 5.0625 C8.03117188 6.16271484 8.03117188 6.16271484 8.828125 7.28515625 C9.21484375 7.85105469 9.6015625 8.41695312 10 9 C10.33 6.03 10.66 3.06 11 0 C11.99 0 12.98 0 14 0 C13.67 4.95 13.34 9.9 13 15 C9.32257874 13.16128937 8.4024598 12.63568217 6.25 9.5 C5.82203125 8.8915625 5.3940625 8.283125 4.953125 7.65625 C4 6 4 6 4 4 C3.34 4 2.68 4 2 4 C2.33 7.63 2.66 11.26 3 15 C2.01 14.67 1.02 14.34 0 14 C0 9.38 0 4.76 0 0 Z " fill="#8A63CA" transform="translate(173,10)"/>
<path d="M0 0 C0.33 1.65 0.66 3.3 1 5 C-0.98 5 -2.96 5 -5 5 C-4.67 5.99 -4.34 6.98 -4 8 C-2.35 8 -0.7 8 1 8 C1 8.66 1 9.32 1 10 C-4.44736842 11.33157895 -4.44736842 11.33157895 -6.875 9.875 C-8.37957373 7.36737712 -8.4318188 5.87879197 -8 3 C-5.82311273 -0.32261741 -3.79605352 -0.30778812 0 0 Z " fill="#AB8CD9" transform="translate(202,15)"/>
<path d="M0 0 C0 0.99 0 1.98 0 3 C-1.32 3 -2.64 3 -4 3 C-4 3.99 -4 4.98 -4 6 C-3.34 6.33 -2.68 6.66 -2 7 C-2.33 7.99 -2.66 8.98 -3 10 C-2.34 10 -1.68 10 -1 10 C-0.67 8.68 -0.34 7.36 0 6 C0 6.66 0 7.32 0 8 C0.66 8.33 1.32 8.66 2 9 C-0.43865652 12.30960527 -2.25979502 14.31847927 -6 16 C-6.10841951 14.08458862 -6.18578079 12.16740227 -6.25 10.25 C-6.29640625 9.18265625 -6.3428125 8.1153125 -6.390625 7.015625 C-6 4 -6 4 -4.109375 1.609375 C-2 0 -2 0 0 0 Z " fill="#F8F4FB" transform="translate(41,18)"/>
<path d="M0 0 C0.99 0 1.98 0 3 0 C3.33 2.64 3.66 5.28 4 8 C4.99 8 5.98 8 7 8 C7 5.36 7 2.72 7 0 C7.99 0 8.98 0 10 0 C10.33 3.3 10.66 6.6 11 10 C4.9453125 10.9765625 4.9453125 10.9765625 3 11 C0.60236815 8.60236815 0.65719414 7.66726502 0.375 4.375 C0.30023438 3.55773437 0.22546875 2.74046875 0.1484375 1.8984375 C0.09945312 1.27195312 0.05046875 0.64546875 0 0 Z " fill="#9059C9" transform="translate(154,15)"/>
<path d="M0 0 C6.8359375 -0.1953125 6.8359375 -0.1953125 9 0 C11 2 11 2 11.125 4.625 C11.08375 5.40875 11.0425 6.1925 11 7 C10.34 7 9.68 7 9 7 C8.34 5.35 7.68 3.7 7 2 C5.68 2 4.36 2 3 2 C3 5.96 3 9.92 3 14 C2.34 14 1.68 14 1 14 C0.67 9.38 0.34 4.76 0 0 Z " fill="#9861CC" transform="translate(91,15)"/>
<path d="M0 0 C2.64 0 5.28 0 8 0 C8 0.66 8 1.32 8 2 C7.01 2.33 6.02 2.66 5 3 C5 5.64 5 8.28 5 11 C3.35 11 1.7 11 0 11 C0 7.37 0 3.74 0 0 Z " fill="#875BC8" transform="translate(126,15)"/>
<path d="M0 0 C0.66 0 1.32 0 2 0 C2.33 2.97 2.66 5.94 3 9 C2.01 9.495 2.01 9.495 1 10 C1 9.34 1 8.68 1 8 C0.34 8 -0.32 8 -1 8 C-1.33 8.66 -1.66 9.32 -2 10 C-2.66 10 -3.32 10 -4 10 C-4.33 7.69 -4.66 5.38 -5 3 C-3.68 3 -2.36 3 -1 3 C-0.67 2.01 -0.34 1.02 0 0 Z " fill="#C6A9E3" transform="translate(42,18)"/>
<path d="M0 0 C0.33 0 0.66 0 1 0 C1.33 2.64 1.66 5.28 2 8 C3.65614657 8.38218767 5.32457024 8.71395102 7 9 C8.96822886 7.03177114 8.66248381 3.65191291 9 1 C9.33 1 9.66 1 10 1 C10.33 3.64 10.66 6.28 11 9 C8.82182537 10.93615523 7.39843626 11.93027366 4.5 12.4375 C1.2124779 11.86218363 0.04592383 10.57634853 -2 8 C-2 7.34 -2 6.68 -2 6 C-1.34 6 -0.68 6 0 6 C0 4.02 0 2.04 0 0 Z " fill="#A775D3" transform="translate(54,14)"/>
<path d="M0 0 C0.66 0 1.32 0 2 0 C2 0.66 2 1.32 2 2 C2.66 2 3.32 2 4 2 C4 2.66 4 3.32 4 4 C3.34 4 2.68 4 2 4 C2 6.64 2 9.28 2 12 C2.66 12.33 3.32 12.66 4 13 C2.35 12.67 0.7 12.34 -1 12 C-1.2226746 10.56465159 -1.42761906 9.12654475 -1.625 7.6875 C-1.74101562 6.88699219 -1.85703125 6.08648437 -1.9765625 5.26171875 C-2 3 -2 3 0 0 Z " fill="#8E61CA" transform="translate(212,12)"/>
<path d="M0 0 C1.67542976 0.28604898 3.34385343 0.61781233 5 1 C5 2.98 5 4.96 5 7 C3.34385343 7.38218767 1.67542976 7.71395102 0 8 C-1 7 -1 7 -1.125 4 C-1 1 -1 1 0 0 Z " fill="#EDE5F6" transform="translate(112,16)"/>
<path d="M0 0 C4 1 4 1 5.8125 2.875 C6.204375 3.57625 6.59625 4.2775 7 5 C6.67 5.99 6.34 6.98 6 8 C5.34 6.68 4.68 5.36 4 4 C3.34 4 2.68 4 2 4 C2.33 7.63 2.66 11.26 3 15 C2.01 14.67 1.02 14.34 0 14 C0 9.38 0 4.76 0 0 Z " fill="#7043BF" transform="translate(173,10)"/>
<path d="M0 0 C6.68120649 1.69257231 10.47103301 3.77426886 15 9 C14.67 9.66 14.34 10.32 14 11 C9 7.66666667 4 4.33333333 -1 1 C-0.67 0.67 -0.34 0.34 0 0 Z " fill="#CABBE8" transform="translate(18,12)"/>
<path d="M0 0 C0.66 0.33 1.32 0.66 2 1 C2 1.66 2 2.32 2 3 C2.66 3.33 3.32 3.66 4 4 C3.01 4.495 3.01 4.495 2 5 C1.83318891 7.91652174 1.83318891 7.91652174 2 11 C2.66 11.66 3.32 12.32 4 13 C2.35 12.67 0.7 12.34 -1 12 C-1.2226746 10.56465159 -1.42761906 9.12654475 -1.625 7.6875 C-1.74101562 6.88699219 -1.85703125 6.08648437 -1.9765625 5.26171875 C-2 3 -2 3 0 0 Z " fill="#824FC4" transform="translate(143,12)"/>
<path d="M0 0 C6.0546875 -0.1953125 6.0546875 -0.1953125 8 0 C10 2 10 2 10.125 4.625 C10.08375 5.40875 10.0425 6.1925 10 7 C9.01 7.495 9.01 7.495 8 8 C8 6.02 8 4.04 8 2 C5.56282742 2.27034634 5.56282742 2.27034634 3 3 C2.34 3.99 1.68 4.98 1 6 C0.67 4.02 0.34 2.04 0 0 Z " fill="#8253C6" transform="translate(74,15)"/>
<path d="M0 0 C2.1385485 2.1385485 2.42655063 3.13275314 3 6 C4.65 6 6.3 6 8 6 C8 6.66 8 7.32 8 8 C2.55263158 9.33157895 2.55263158 9.33157895 0.125 7.875 C-1.33772308 5.43712819 -1.29431219 3.7959658 -1 1 C-0.67 0.67 -0.34 0.34 0 0 Z " fill="#A36ED1" transform="translate(195,17)"/>
<path d="M0 0 C0.99 0.33 1.98 0.66 3 1 C3 2.98 3 4.96 3 7 C1.68 7.33 0.36 7.66 -1 8 C-1.04241723 5.66705225 -1.04092937 3.33297433 -1 1 C-0.67 0.67 -0.34 0.34 0 0 Z " fill="#F8F6FC" transform="translate(96,16)"/>
<path d="M0 0 C1.32 0 2.64 0 4 0 C4 2.31 4 4.62 4 7 C2.68 6.67 1.36 6.34 0 6 C0 4.02 0 2.04 0 0 Z " fill="#FAF8FC" transform="translate(77,17)"/>
<path d="M0 0 C0.66 0 1.32 0 2 0 C2 3.96 2 7.92 2 12 C1.34 12 0.68 12 0 12 C-0.19477739 10.37585622 -0.38059458 8.75063577 -0.5625 7.125 C-0.66691406 6.22007813 -0.77132812 5.31515625 -0.87890625 4.3828125 C-1 2 -1 2 0 0 Z " fill="#DFD6F1" transform="translate(46,11)"/>
<path d="M0 0 C0.66 0.66 1.32 1.32 2 2 C0.90716423 3.03295436 -0.19970579 4.05107835 -1.3125 5.0625 C-1.92738281 5.63097656 -2.54226562 6.19945312 -3.17578125 6.78515625 C-3.77777344 7.18605469 -4.37976563 7.58695313 -5 8 C-5.99 7.67 -6.98 7.34 -8 7 C-7.34 7 -6.68 7 -6 7 C-5.9071875 6.1028125 -5.9071875 6.1028125 -5.8125 5.1875 C-4.6763243 2.12856542 -2.82669858 1.44958901 0 0 Z " fill="#D7D1EE" transform="translate(23,5)"/>
<path d="M0 0 C1.485 0.99 1.485 0.99 3 2 C3.6875 5.625 3.6875 5.625 4 9 C2.35 9 0.7 9 -1 9 C-0.67 6.03 -0.34 3.06 0 0 Z " fill="#B282D7" transform="translate(127,17)"/>
<path d="M0 0 C0 2.97 0 5.94 0 9 C-0.99 8.67 -1.98 8.34 -3 8 C-2.67 6.35 -2.34 4.7 -2 3 C-2.99 2.67 -3.98 2.34 -5 2 C-2 0 -2 0 0 0 Z " fill="#FCFCFE" transform="translate(46,14)"/>
<path d="M0 0 C1.5 1.375 1.5 1.375 3 3 C3 3.66 3 4.32 3 5 C3.66 5 4.32 5 5 5 C5 5.99 5 6.98 5 8 C2 7 2 7 0.25 4.5625 C-0.1625 3.716875 -0.575 2.87125 -1 2 C-0.67 1.34 -0.34 0.68 0 0 Z " fill="#8D54C8" transform="translate(180,16)"/>
<path d="M0 0 C4.875 0.875 4.875 0.875 6 2 C6.04063832 3.66617115 6.042721 5.33388095 6 7 C5.34 7 4.68 7 4 7 C3.566875 5.824375 3.566875 5.824375 3.125 4.625 C2.15087746 1.90328368 2.15087746 1.90328368 0 0 Z " fill="#8251C5" transform="translate(96,15)"/>
<path d="M0 0 C4.455 0.99 4.455 0.99 9 2 C8.67 2.66 8.34 3.32 8 4 C5.6875 4.25 5.6875 4.25 3 4 C1.1875 2 1.1875 2 0 0 Z " fill="#EACDF0" transform="translate(28,33)"/>
</svg>
